<?xml version="1.0" encoding="utf-8"?>
<!-- Generator: Adobe Illustrator 16.2.1, SVG Export Plug-In . SVG Version: 6.00 Build 0)  -->
<!DOCTYPE svg PUBLIC "-//W3C//DTD SVG 1.1//EN" "http://www.w3.org/Graphics/SVG/1.1/DTD/svg11.dtd">
<svg version="1.1" id="Layer_1" xmlns="http://www.w3.org/2000/svg" xmlns:xlink="http://www.w3.org/1999/xlink" x="0px" y="0px"
	 width="300px" height="300px" viewBox="0 0 300 300" enable-background="new 0 0 300 300" xml:space="preserve">
<g>
	<path fill="#419D9E" d="M16.929,151.337c0-73.759,59.792-133.558,133.557-133.558c73.754,0,133.549,59.798,133.549,133.558
		c0,73.763-59.795,133.557-133.549,133.557C76.721,284.894,16.929,225.1,16.929,151.337"/>
	<path fill="#FFFFFF" d="M217.322,109.534c-3.406-0.501-6.503-0.758-9.287-0.758c-7.476,0-14.201,0.703-20.169,2.097
		c-5.974,1.39-11.356,2.874-16.153,4.433l-14.097,58.845h-48.515c4.209-4.53,8.741-9.25,13.594-14.156
		c4.85-4.906,9.601-9.596,14.24-14.078c4.636-4.478,8.948-8.576,12.945-12.299c3.985-3.724,7.219-6.658,9.712-8.818l13.43-55.779
		h-23.593l-9.584,39.756H97.457l-4.862,19.748h34.627c-3.776,3.456-7.846,7.304-12.214,11.562c-4.37,4.271-8.741,8.715-13.102,13.35
		c-4.379,4.647-8.58,9.227-12.627,13.761c-2.962,3.317-5.678,6.458-8.147,9.433l-4.133,17.264h42.635l-9.596,39.823h23.633
		l9.564-39.823h9.63h1.616h23.327l15-62.849c1.221-0.335,2.789-0.641,4.688-0.923c1.899-0.277,3.612-0.417,5.189-0.417
		c4.227,0,7.439,0.249,9.617,0.755c2.166,0.498,4.356,1.023,6.58,1.575l5.022-20.967
		C221.922,110.402,219.731,109.889,217.322,109.534"/>
	<g>
		<path fill="#419D9E" d="M275.88,276.726c-0.359,1.937-0.752,3.929-1.18,5.978h2.077c0.481-2.488,0.929-4.979,1.329-7.468
			c0.409-2.485,0.732-4.932,0.974-7.34h-1.984c-0.473,0.631-1.006,1.366-1.596,2.207c-0.59,0.857-1.195,1.737-1.826,2.679
			c-0.623,0.934-1.244,1.859-1.867,2.785c-0.618,0.93-1.188,1.77-1.697,2.538c-0.113-0.753-0.259-1.593-0.421-2.522
			c-0.161-0.921-0.339-1.851-0.533-2.78c-0.189-0.934-0.383-1.826-0.574-2.683c-0.193-0.857-0.372-1.593-0.549-2.224h-2.029
			c-0.363,1.068-0.751,2.207-1.144,3.396c-0.388,1.195-0.78,2.424-1.169,3.689c-0.396,1.257-0.778,2.542-1.154,3.851
			c-0.38,1.302-0.744,2.587-1.083,3.872h2.053c0.541-2.008,1.09-3.983,1.664-5.941c0.574-1.95,1.156-3.843,1.751-5.682
			c0.077,0.312,0.157,0.711,0.262,1.205c0.098,0.496,0.206,1.034,0.333,1.64c0.111,0.592,0.237,1.221,0.354,1.867
			c0.129,0.646,0.243,1.273,0.356,1.884c0.12,0.599,0.218,1.163,0.306,1.69c0.098,0.517,0.171,0.944,0.228,1.288h1.673
			c0.21-0.331,0.484-0.755,0.833-1.272c0.339-0.525,0.711-1.084,1.107-1.689c0.396-0.606,0.814-1.229,1.239-1.88
			c0.424-0.646,0.841-1.265,1.238-1.87c0.398-0.6,0.771-1.148,1.11-1.642c0.339-0.5,0.626-0.908,0.855-1.221
			C276.542,272.919,276.231,274.799,275.88,276.726 M251.896,267.896l-0.408,1.735h4.47l-3.146,13.072h2.077l3.137-13.072h4.462
			l0.412-1.735H251.896z"/>
	</g>
</g>
</svg>
